#!OML:ASF E:/inclinewalkrobotboard/Project1/Captureday1/Session1/subject1.ASF
:FULLY-SPECIFIED
:DEGREES
38
root 0 0 0 -2.753041904021914 -0.2532657517660706 0.7949126809139121
lowerback 10.387750870404108 -0.9972334753962907 -2.5618358835253043
upperback 0.5775614249273229 -1.5146383108788282 1.6639462701815209
thorax -5.125737290264649 -0.6766402871371546 3.3877060571222612
lowerneck -16.87280195214959 -2.6398750116937215 -2.220301758553676
upperneck 19.540652623570015 -3.205307090414492 0.48351922832320593
head 8.943211065898225 -1.6110832651554856 0.11680137636989585
rclavicle -3.9870174936672873E-16 -3.4418014841251503E-16
rhumerus -29.675789084480027 -18.562141035018833 -78.16433330651087
rradius 26.149717047480696
rwrist 4.279238442135536
rhand -17.58545812797889 22.90302397261514
rfingers 7.12502000000003
rthumb 8.657628945546907 -6.922083089520271
lclavicle -6.967641391284654E-16 -1.9083606329820258E-16
lhumerus -29.258003721005426 -2.6649058126744087 82.21790251592157
lradius 34.53673169011208
lwrist 5.890071621295192
lhand -24.960754631909563 24.281671647100563
lfingers 7.123412269868476
lthumb 1.5232242418884834 53.69580027755026
rfemur -17.6722681433392 4.954185196435158 22.72741583150718
rtibia 41.39628796597996
rfoot -6.624474512178497 -7.565232402360975
rtoes 2.1090188098330387
lfemur 4.44515271344776 -3.245912552974284 -26.39195008394138
ltibia 19.739938401714397
lfoot -15.976297191869593 0.268455124980405
ltoes -4.435475859320501
39
root 0 0 0 -2.7647916992897974 -0.21451250390202325 0.969372724447756
lowerback 10.379718234928024 -1.0654386219078757 -2.7531482422312097
upperback 0.5887656365218961 -1.6278750344733468 1.6537603103226397
thorax -5.109184333230852 -0.7291486893953745 3.5017768215004423
lowerneck -16.821621084192692 -2.6308506387288495 -2.257215879855993
upperneck 19.521636405732693 -3.1940701603172545 0.5147245241489813
head 8.925946854027526 -1.6056146359594552 0.13615167065235045
rclavicle -4.0553366088959237E-16 -3.418961059639888E-16
rhumerus -29.569496986963216 -18.466155432963347 -78.14209678823632
rradius 26.241508318036587
rwrist 4.300684407274369
rhand -17.60259709006025 22.828131710576276
rfingers 7.1250200000000286
rthumb 8.641829687134532 -6.995481053741425
lclavicle -7.122866709491387E-16 -1.8643999829902412E-16
lhumerus -29.02216856799436 -2.925489496099427 82.20094153698331
lradius 35.037920250386804
lwrist 5.939701892717055
lhand -24.811479367856073 24.372813867122485
lfingers 7.12329066155116
lthumb 1.664215590373809 53.73736221222913
rfemur -13.708621617889388 6.969871508638857 24.54491555818089
rtibia 31.000235306144376
rfoot -11.57027504014154 -8.297207696784199
rtoes -0.7010323216746221
lfemur 4.581150505196904 -3.153269091302118 -26.345975862110784
ltibia 20.47930413503567
lfoot -15.667285102929949 -0.06569765884552936
ltoes -4.678784498887874
40
root 0 0 0 -2.769855377434805 -0.19202056316629523 1.0648795345144992
lowerback 10.371998281899103 -1.104652858004881 -2.8584449754589745
upperback 0.5944493915181721 -1.6923451514925687 1.648762385424516
thorax -5.09864241200565 -0.7590845543144094 3.565876909504003
lowerneck -16.793300796081503 -2.625063812207302 -2.2779489234718397
upperneck 19.515079993732673 -3.1867183909651846 0.5309948441367558
head 8.916523011293023 -1.6018791850018745 0.14647298151974786
rclavicle -4.1501056095080824E-16 -3.3888094598647897E-16
rhumerus -29.439941540126377 -18.346042594483812 -78.11425726133906
rradius 26.35572904482775
rwrist 4.326926370656321
rhand -17.62301123813677 22.73619905912424
rfingers 7.125020000000028
rthumb 8.622833599437245 -7.085687416222811
lclavicle -7.310551216470635E-16 -1.8447281478538901E-16
lhumerus -28.79716134223211 -3.176239070204204 82.18450275605497
lradius 35.51922821193495
lwrist 5.98578971723067
lhand -24.6655506080884 24.45968589766443
lfingers 7.123171949274287
lthumb 1.8032286282019196 53.777053860699965
rfemur -9.577615775688773 8.923240141527009 26.433280182281663
rtibia 20.981739020942715
rfoot -16.37774556041055 -8.91581701132195
rtoes -3.3453579286309996
lfemur 4.570138864854139 -3.046785136678083 -26.22955238778672
ltibia 21.36384380034696
lfoot -15.238312760922087 -0.4476157185547498
ltoes -4.9026489654884085
41
root 0 0 0 -2.7783005824032685 -0.18547331979228332 1.1766276871689314
lowerback 10.361371056277747 -1.1471141717251077 -2.980483289309915
upperback 0.6036890317934853 -1.7629579522541352 1.639344868599188
thorax -5.082821275118187 -0.7917681176747264 3.6346674736132942
lowerneck -16.745320212137194 -2.616446381891398 -2.306182525582967
upperneck 19.49858922831089 -3.174813598123809 0.5554595419926729
head 8.900661375053707 -1.5970233439822783 0.16126858513722953
rclavicle -4.322471757272903E-16 -3.29199715149342E-16
rhumerus -29.201666997372904 -18.115155170384106 -78.05989910561733
rradius 26.582883720111525
rwrist 4.3774775399822055
rhand -17.662769959178767 22.558610962618825
rfingers 7.125020000000025
rthumb 8.58635194580895 -7.259402408031008
lclavicle -7.539704510959913E-16 -1.8898733205977196E-16
lhumerus -28.65961649566445 -3.3485585130583786 82.1767152628679
lradius 35.835254060874796
lwrist 6.008333965223034
lhand -24.55988008055334 24.509492694786022
lfingers 7.123042340054687
lthumb 1.9048033929008028 53.80100023971505
rfemur -7.7304929500543444 9.39142364597384 27.416476965012702
rtibia 18.501367452821846
rfoot -17.56731514127838 -8.810856914500658
rtoes -3.6369170269859215
lfemur 4.178294647541401 -2.753699953953226 -25.828702926308416
ltibia 23.76342274936994
lfoot -13.91629115184527 -1.4897158168866902
ltoes -5.293593383329103
